# Blender v2.91.0 OBJ File: 'ANT_props.blend'
# www.blender.org
o Cube.001_Cube
v 0.094870 0.005240 0.191725
v 0.094870 -0.043720 0.171796
v 0.094870 -0.043720 0.191725
v 0.094870 0.005240 0.171796
v 0.189739 0.009792 0.145160
v -0.094870 0.005240 0.191725
v -0.094870 -0.043720 0.171796
v -0.094870 -0.043720 0.191725
v -0.094870 0.005240 0.171796
v -0.189739 0.009792 0.145160
v 0.000000 -0.001289 0.200968
v 0.000000 0.047672 0.207776
v 0.000000 -0.001289 0.227704
v 0.000000 0.047672 0.227704
vt 0.893750 0.916437
vt 0.893750 0.916437
vt 0.893750 0.916437
vt 0.893750 0.916437
vt 0.893750 0.916437
vt 0.893750 0.916437
vt 0.893750 0.916437
vt 0.698425 0.922638
vt 0.698425 0.922638
vt 0.698425 0.922638
vt 0.698425 0.922638
vt 0.698425 0.922638
vt 0.698425 0.922638
vt 0.698425 0.922638
vt 0.893750 0.916437
vt 0.893750 0.916437
vt 0.893750 0.916437
vt 0.893750 0.916437
vt 0.698425 0.922638
vt 0.698425 0.922638
vt 0.698425 0.922638
vt 0.698425 0.922638
vn -0.2974 0.0662 -0.9524
vn -0.2703 0.0000 -0.9628
vn -0.4083 -0.9129 0.0000
vn 0.4913 -0.8710 0.0000
vn -0.0479 0.9989 0.0000
vn 0.4083 0.9129 0.0000
vn 0.3546 0.0000 0.9350
vn 0.4406 0.0000 0.8977
vn 0.2974 0.0662 -0.9524
vn 0.2703 0.0000 -0.9628
vn 0.4083 -0.9129 0.0000
vn -0.4913 -0.8710 0.0000
vn 0.0479 0.9989 0.0000
vn -0.4083 0.9129 0.0000
vn -0.3546 0.0000 0.9350
vn -0.4406 0.0000 0.8977
s off
f 11/1/1 12/2/1 4/3/1 2/4/1
f 2/4/2 4/3/2 5/5/2
f 11/1/3 2/4/3 3/6/3 13/7/3
f 2/4/4 5/5/4 3/6/4
f 5/8/5 4/9/5 1/10/5
f 4/9/6 12/11/6 14/12/6 1/10/6
f 3/13/7 1/10/7 14/12/7 13/14/7
f 5/8/8 1/10/8 3/13/8
f 11/1/9 7/15/9 9/16/9 12/2/9
f 7/15/10 10/17/10 9/16/10
f 11/1/11 13/7/11 8/18/11 7/15/11
f 7/15/12 8/18/12 10/17/12
f 10/19/13 6/20/13 9/21/13
f 9/21/14 6/20/14 14/12/14 12/11/14
f 8/22/15 13/14/15 14/12/15 6/20/15
f 10/19/16 8/22/16 6/20/16
