# Blender v2.91.0 OBJ File: 'ANT_PROPS.blend'
# www.blender.org
o Cylinder
v 0.612222 -1.264139 -17.949869
v 0.561892 3.633035 -18.636442
v 18.080833 -6.664425 -20.952501
v 15.169329 7.143588 -16.969784
v 20.336710 -6.143106 11.403730
v 12.681447 7.110548 6.334835
v -0.000006 -11.947762 31.092012
v -0.000002 7.110548 13.656470
v -20.336716 -6.143106 11.403728
v -12.681450 7.110548 6.334832
v -20.336716 -6.143106 -12.079082
v -12.681450 7.110548 -8.308440
v 5.469286 77.170181 -6.095374
v 10.748034 77.170181 -3.047687
v 10.748034 77.170181 3.047688
v 5.469285 77.170181 6.095374
v 0.224106 94.817192 1.901390
v 0.224106 94.817192 -1.901390
v 5.469286 116.670586 -4.735867
v 9.570666 116.670586 -2.367933
v 9.570666 116.670586 2.367934
v 5.469285 116.670586 4.735867
v 1.334335 99.023590 1.260399
v 1.334335 99.023590 -1.260399
v 0.190537 77.170181 -3.047687
v 0.190537 77.170181 3.047687
v 1.367905 116.670586 -2.367933
v 1.367905 116.670586 2.367933
v -12.214078 98.100098 -1.901390
v -12.214078 98.100098 1.901390
v -11.103848 102.306503 -1.260399
v -11.103848 102.306503 1.260399
v -23.057892 110.302376 1.051803
v -23.057892 110.302376 4.854583
v -21.947662 114.508781 1.692794
v -21.947662 114.508781 4.213592
v -5.012373 -2.769565 -17.580032
v -1.666170 2.225378 -17.683458
v 5.267330 -2.769565 -18.986578
v 2.989105 1.872531 -19.111547
v 0.529027 -2.270585 -18.203846
v 0.538925 3.145373 -18.934111
v -3.986359 -2.533094 -18.241274
v -1.269855 1.997160 -18.241274
v 4.358881 -2.533094 -20.051136
v 2.509379 1.677140 -19.535252
v 0.620454 2.629598 -18.557205
v -3.143067 -1.264139 -17.980995
v -0.883845 1.674669 -17.980995
v 3.797379 -1.264139 -19.486193
v 2.259212 1.408519 -19.057152
v 0.924672 2.718013 -17.410826
v -0.579627 1.763084 -16.834618
v -2.838849 -1.264139 -16.834618
v 0.916440 -1.264139 -16.803490
v 4.101597 -1.264139 -18.339815
v 2.563430 1.496934 -17.910774
vt 0.551359 0.653232
vt 0.551359 0.653232
vt 0.551359 0.653232
vt 0.551359 0.653232
vt 0.438480 0.797833
vt 0.438480 0.797833
vt 0.438480 0.797833
vt 0.438480 0.797833
vt 0.438480 0.797833
vt 0.438480 0.797833
vt 0.438480 0.797833
vt 0.438480 0.797833
vt 0.438480 0.797833
vt 0.438480 0.797833
vt 0.438480 0.797833
vt 0.438480 0.797833
vt 0.438480 0.797833
vt 0.438480 0.797833
vt 0.854035 0.766428
vt 0.854035 0.766428
vt 0.854035 0.766428
vt 0.854035 0.766428
vt 0.438480 0.797833
vt 0.438480 0.797833
vt 0.438480 0.797833
vt 0.438480 0.797833
vt 0.438480 0.797833
vt 0.438480 0.797833
vt 0.438480 0.797833
vt 0.438480 0.797833
vt 0.438480 0.797833
vt 0.438480 0.797833
vt 0.438480 0.797833
vt 0.438480 0.797833
vt 0.438480 0.797833
vt 0.438480 0.797833
vt 0.438480 0.797833
vt 0.438480 0.797833
vt 0.438480 0.797833
vt 0.438480 0.797833
vt 0.438480 0.797833
vt 0.438480 0.797833
vt 0.438480 0.797833
vt 0.438480 0.797833
vt 0.438480 0.797833
vt 0.388947 0.776271
vt 0.388947 0.776271
vt 0.388947 0.776271
vt 0.388947 0.776271
vt 0.438480 0.797833
vt 0.438480 0.797833
vt 0.854035 0.766428
vt 0.854035 0.766428
vt 0.854035 0.766428
vt 0.854035 0.766428
vt 0.551359 0.653232
vt 0.551359 0.653232
vt 0.551359 0.653232
vt 0.551359 0.653232
vt 0.388947 0.776271
vt 0.388947 0.776271
vt 0.388947 0.776271
vt 0.388947 0.776271
vt 0.388947 0.776271
vt 0.388947 0.776271
vt 0.746943 0.773701
vt 0.746943 0.773701
vt 0.746943 0.773701
vt 0.746943 0.773701
vt 0.854035 0.766428
vt 0.854035 0.766428
vt 0.746943 0.773701
vt 0.746943 0.773701
vt 0.549809 0.676739
vt 0.549809 0.676739
vt 0.549808 0.676739
vt 0.549808 0.676739
vt 0.549808 0.676739
vt 0.549809 0.676739
vt 0.746943 0.773701
vt 0.746943 0.773701
vt 0.551359 0.653232
vt 0.551359 0.653232
vt 0.746943 0.773701
vn 0.7834 -0.5933 -0.1850
vn 0.9315 0.3637 0.0007
vn 0.4526 0.5793 0.6778
vn -0.4526 0.5793 0.6778
vn 0.9957 0.0388 0.0843
vn -0.8659 0.5002 0.0000
vn -0.4282 0.4190 -0.8007
vn 0.6012 -0.4005 -0.6915
vn 0.4998 0.0298 -0.8656
vn -0.9835 0.1807 0.0000
vn 0.1973 0.1771 -0.9642
vn 0.4993 0.0544 0.8647
vn -0.5558 0.1697 -0.8138
vn -0.4957 0.1313 0.8585
vn 0.0000 1.0000 0.0000
vn -0.4998 0.0298 -0.8656
vn -0.4998 0.0298 0.8656
vn 0.9996 0.0298 0.0000
vn 0.0372 0.1409 0.9893
vn 0.4998 0.0298 0.8656
vn -1.0000 0.0019 0.0000
vn -0.9986 0.0523 -0.0000
vn 0.7475 0.6643 0.0000
vn 0.2552 0.9669 0.0000
vn 0.0372 0.1409 -0.9893
vn -0.2552 -0.9669 0.0000
vn -0.9669 0.2552 0.0000
vn -0.0764 0.1699 -0.9825
vn -0.7475 -0.6643 0.0000
vn 0.3232 0.0586 0.9445
vn 0.6899 0.3497 -0.6339
vn -0.0043 0.2035 -0.9791
vn 0.0352 0.3053 -0.9516
vn -0.5327 0.3101 -0.7875
vn -0.5853 -0.5367 -0.6078
vn 0.0595 -0.5828 -0.8104
vn -0.5432 -0.8137 0.2069
vn -0.5757 0.4858 -0.6577
vn 0.2595 0.6045 -0.7532
vn -0.6040 0.3768 -0.7022
vn 0.0011 0.2200 -0.9755
vn -0.8700 -0.3861 -0.3067
vn -0.4159 0.2293 -0.8800
vn -0.0928 -0.0561 -0.9941
vn -0.4112 -0.1172 -0.9040
vn 0.5151 -0.8542 -0.0708
vn -0.8282 -0.5067 0.2393
s off
f 48/1/1 49/2/1 53/3/1 54/4/1
f 3/5/2 4/6/2 6/7/2 5/8/2
f 5/8/3 6/7/3 8/9/3 7/10/3
f 7/10/4 8/9/4 10/11/4 9/12/4
f 6/7/5 4/6/5 14/13/5 15/14/5
f 9/12/6 10/11/6 12/15/6 11/16/6
f 11/16/7 12/15/7 38/17/7 37/18/7
f 43/19/8 44/20/8 49/21/8 48/22/8
f 14/13/9 13/23/9 19/24/9 20/25/9
f 12/15/10 10/11/10 26/26/10 25/27/10
f 4/6/11 2/28/11 13/23/11 14/13/11
f 8/9/12 6/7/12 15/14/12 16/29/12
f 2/28/13 12/15/13 25/27/13 13/23/13
f 10/11/14 8/9/14 16/29/14 26/26/14
f 20/25/15 19/24/15 27/30/15 28/31/15 22/32/15 21/33/15
f 13/23/16 25/27/16 27/30/16 19/24/16
f 26/26/17 16/29/17 22/32/17 28/31/17
f 15/14/18 14/13/18 20/25/18 21/33/18
f 17/34/19 23/35/19 32/36/19 30/37/19
f 16/29/20 15/14/20 21/33/20 22/32/20
f 17/34/21 18/38/21 25/27/21 26/26/21
f 24/39/21 23/35/21 28/31/21 27/30/21
f 18/38/22 24/39/22 27/30/22 25/27/22
f 23/35/22 17/34/22 26/26/22 28/31/22
f 32/36/23 31/40/23 35/41/23 36/42/23
f 23/35/24 24/39/24 31/40/24 32/36/24
f 24/39/25 18/38/25 29/43/25 31/40/25
f 18/38/26 17/34/26 30/37/26 29/43/26
f 33/44/27 34/45/27 36/42/27 35/41/27
f 31/40/28 29/43/28 33/44/28 35/41/28
f 29/43/29 30/37/29 34/45/29 33/44/29
f 30/37/30 32/36/30 36/42/30 34/45/30
f 40/46/31 39/47/31 45/48/31 46/49/31
f 39/50/32 40/51/32 4/6/32 3/5/32
f 4/6/33 40/51/33 2/28/33
f 38/17/34 12/15/34 2/28/34
f 42/52/35 46/53/35 51/54/35 47/55/35
f 44/20/36 42/52/36 47/55/36 49/21/36
f 47/56/37 51/57/37 57/58/37 52/59/37
f 38/60/38 2/61/38 42/62/38 44/63/38
f 2/61/39 40/46/39 46/49/39 42/62/39
f 37/64/40 38/60/40 44/63/40 43/65/40
f 41/66/41 43/67/41 48/68/41 1/69/41
f 46/53/42 45/70/42 50/71/42 51/54/42
f 45/72/43 41/66/43 1/69/43 50/73/43
f 54/74/44 53/75/44 52/76/44 55/77/44
f 55/77/45 52/76/45 57/78/45 56/79/45
f 49/2/46 47/56/46 52/59/46 53/3/46
f 1/69/15 48/68/15 54/80/15 55/81/15
f 51/57/47 50/82/47 56/83/47 57/58/47
f 50/73/15 1/69/15 55/81/15 56/84/15
