# Blender v2.91.0 OBJ File: 'ANT_PROPS.blend'
# www.blender.org
o Plane
v -57.244720 -0.000000 62.259251
v 75.953735 0.000000 63.486668
v -66.249496 -0.000000 -66.891144
v 62.143700 -0.000000 -65.925140
v -13.564947 -0.000000 64.775078
v -0.000000 -0.000000 64.775070
v 6.528326 -0.000000 64.775078
v 8.586710 -0.000000 -57.244732
v -5.013544 -0.000000 -57.244728
v -84.600700 -0.000000 -33.640480
v -92.247696 -0.000000 4.379567
v -89.246635 -0.000000 31.922850
v 91.053848 -0.000000 27.053608
v 98.121666 -0.000000 -2.785610
v 91.970680 0.000000 -32.726185
v -8.630100 -0.000000 32.536263
v -7.892586 -0.000000 3.235937
v -0.243547 -0.000000 -31.739567
v 2.113323 -0.000000 28.622360
v -1.854539 -0.000000 -0.000002
v 7.848645 -0.000000 32.779301
v -1.854540 -0.000000 -0.000002
v 23.073339 -0.000000 62.906654
v 49.275166 -0.000000 66.728195
v 33.542233 -0.000000 -60.331165
v 63.360157 -0.000000 30.791931
v 51.258686 0.000000 -8.596323
v 51.369160 0.000000 -43.862354
v -42.869102 -0.000000 -61.378433
v -35.424633 -0.000000 65.960167
v -52.022034 -0.000000 32.845688
v -62.382252 -0.000000 -5.237543
v -52.360970 -0.000000 -34.298347
v -2.957914 -0.000000 -82.059608
v -7.222607 -0.000000 104.840797
v -22.341825 0.000000 83.996719
v 11.754308 -0.000000 92.039223
v -22.341827 0.000000 83.996719
v 11.754307 -0.000000 92.039223
v 11.754309 -0.000000 92.039223
v 62.637608 -0.000000 99.125397
v -49.177444 0.000000 93.360970
v -22.341825 0.000000 83.996719
vt 0.662896 0.926082
vt 0.662896 0.926082
vt 0.662896 0.926082
vt 0.662896 0.926082
vt 0.349987 0.926082
vt 0.349987 0.926082
vt 0.349987 0.926082
vt 0.349987 0.926082
vt 0.349987 0.926082
vt 0.247674 0.788115
vt 0.247674 0.788115
vt 0.247674 0.788115
vt 0.247674 0.788115
vt 0.349987 0.926082
vt 0.349987 0.926082
vt 0.349987 0.926082
vt 0.349987 0.926082
vt 0.247674 0.788115
vt 0.247674 0.788115
vt 0.247674 0.788115
vt 0.247674 0.788115
vt 0.247674 0.788115
vt 0.349987 0.926082
vt 0.349987 0.926082
vt 0.349987 0.926082
vt 0.349987 0.926082
vt 0.349987 0.926082
vt 0.349987 0.926082
vt 0.247674 0.788115
vt 0.662896 0.926082
vt 0.662896 0.926082
vt 0.662896 0.926082
vt 0.662896 0.926082
vt 0.662896 0.926082
vt 0.662896 0.926082
vt 0.349987 0.926082
vt 0.349987 0.926082
vt 0.349987 0.926082
vt 0.349987 0.926082
vt 0.349987 0.926082
vt 0.349987 0.926082
vt 0.662896 0.926082
vt 0.662896 0.926082
vt 0.662896 0.926082
vt 0.662896 0.926082
vt 0.662896 0.926082
vt 0.662896 0.926082
vt 0.662896 0.926082
vt 0.662896 0.926082
vt 0.662896 0.926082
vt 0.662896 0.926082
vt 0.657156 0.910288
vt 0.657156 0.910288
vt 0.657156 0.910288
vt 0.657156 0.910288
vt 0.657156 0.910288
vt 0.662896 0.926082
vt 0.662896 0.926082
vt 0.662896 0.926082
vt 0.662896 0.926082
vt 0.247674 0.788115
vt 0.247674 0.788115
vt 0.349987 0.926082
vt 0.349987 0.926082
vt 0.349987 0.926082
vt 0.349987 0.926083
vt 0.247674 0.788115
vt 0.247674 0.788115
vt 0.662896 0.926082
vt 0.662896 0.926083
vt 0.349987 0.926082
vt 0.247674 0.788115
vt 0.639726 0.920866
vt 0.639726 0.920866
vt 0.639726 0.920866
vn 0.0000 1.0000 -0.0000
vn 0.0000 -1.0000 0.0000
vn 0.0000 0.0000 -1.0000
vn 0.0000 0.0000 1.0000
s off
f 28/1/1 15/2/1 4/3/1 25/4/1
f 33/5/1 18/6/1 9/7/1 29/8/1
f 18/6/1 8/9/1 9/7/1
f 6/10/1 7/11/1 21/12/1 19/13/1
f 19/14/1 21/15/1 22/16/1 20/17/1
f 20/17/2 22/16/2 18/6/2
f 5/18/1 6/10/1 19/13/1 16/19/1
f 16/19/1 19/13/1 20/20/1 17/21/1
f 17/21/1 20/20/1 18/22/1
f 30/23/1 5/24/1 16/25/1 31/26/1
f 31/26/1 16/25/1 17/27/1 32/28/1
f 32/28/1 17/27/1 18/6/1 33/5/1
f 7/11/1 23/29/1 21/12/1
f 26/30/1 13/31/1 14/32/1 27/33/1
f 27/33/1 14/32/1 15/2/1 28/1/1
f 26/30/1 24/34/1 2/35/1 13/31/1
f 21/15/1 23/36/1 24/37/1 26/38/1
f 22/16/1 27/39/1 28/40/1 18/6/1
f 21/15/1 26/38/1 27/39/1 22/16/1
f 18/6/1 28/40/1 25/41/1 8/9/1
f 11/42/1 32/43/1 33/44/1 10/45/1
f 12/46/1 31/47/1 32/43/1 11/42/1
f 1/48/1 30/49/1 31/47/1 12/46/1
f 10/45/1 33/44/1 29/50/1 3/51/1
f 29/52/1 9/53/1 34/54/1
f 8/55/1 25/56/1 34/54/1
f 3/51/1 29/50/1 34/57/1
f 25/4/1 4/3/1 34/57/1
f 9/53/1 8/55/1 34/54/1
f 30/49/1 42/58/1 35/59/1 36/60/1
f 7/11/1 6/10/1 38/61/1 40/62/1
f 5/24/1 30/23/1 36/63/1 43/64/1
f 24/37/1 23/36/1 37/65/1 39/66/1
f 23/29/1 7/11/1 40/62/1 37/67/1
f 6/10/1 5/18/1 43/68/1 38/61/1
f 2/35/1 24/34/1 41/69/1
f 42/58/1 30/49/1 1/48/1
f 41/69/1 24/34/1 39/70/1 35/59/1
f 39/66/2 37/65/2 35/71/2
f 37/67/2 40/62/2 35/72/2
f 40/73/1 38/74/1 35/75/1
f 38/61/3 43/68/3 35/72/3
f 43/64/4 36/63/4 35/71/4
