# Blender v2.91.0 OBJ File: 'ANT_PROPS.blend'
# www.blender.org
o Plane.082_Plane.085
v -4.154114 -2.864423 -1.997279
v -6.231708 -2.231729 -0.109793
v -7.402419 12.773911 -0.618928
v -10.131103 12.975915 0.280138
v -8.149268 18.831894 2.767495
v -10.754363 19.024750 3.625841
v -9.464278 24.098797 7.372643
v -6.231708 -2.231728 -0.109793
v -8.192637 -2.553447 -0.784917
v -10.677356 10.829825 -0.535231
v -13.303764 11.175601 0.594929
v -12.277740 18.032732 3.133532
v -14.187083 18.219933 3.957989
v -13.133177 24.467058 7.680902
v -0.082764 -3.596515 -2.554476
v -2.102854 -2.975665 -1.567755
v -1.372634 9.700620 -2.262913
v -2.791811 10.595405 -1.444634
v -2.255333 20.245350 0.571244
v -3.846959 19.501076 1.561874
v -3.521710 25.006260 5.557758
v -2.102853 -2.975666 -1.567756
v -4.154114 -2.864423 -1.997279
v -4.104174 10.487008 -1.615303
v -6.721647 10.765231 -0.534556
v -4.363036 17.588470 1.452604
v -6.699724 17.854095 2.877317
v -6.650414 25.958309 6.694704
v 3.951602 -4.194291 -3.669250
v 1.879120 -3.415362 -1.831482
v 6.719883 13.400509 -2.656362
v 3.991488 13.796305 -1.823270
v 6.295637 20.584080 0.738063
v 5.042414 20.690273 0.772548
v 7.033588 25.390049 4.530991
v 1.879123 -3.415362 -1.831483
v -0.082764 -3.596515 -2.554476
v 2.992811 12.324795 -2.643589
v 0.340095 12.242531 -1.525028
v 1.430342 19.540089 0.715200
v -0.498442 19.480274 1.528502
v 0.957067 26.084736 4.977741
v 7.972809 -5.214507 -4.129022
v 5.978695 -4.451414 -3.190382
v 12.570173 10.564116 -4.071642
v 10.798956 11.241910 -3.237921
v 12.488130 16.267416 -1.240420
v 10.758182 16.929420 -0.426125
v 13.518182 24.583277 2.344872
v 5.978698 -4.451415 -3.190383
v 3.951602 -4.194291 -3.669250
v 9.840624 11.606933 -3.982100
v 7.383598 12.058679 -2.549002
v 9.925006 18.590101 -0.462936
v 8.310523 18.886936 0.478736
v 11.455753 25.139584 3.669064
vt 0.763001 0.924754
vt 0.763001 0.924754
vt 0.763001 0.924754
vt 0.763001 0.924754
vt 0.763001 0.924754
vt 0.763001 0.924754
vt 0.763001 0.924754
vt 0.964527 0.910802
vt 0.964527 0.910802
vt 0.964527 0.910802
vt 0.964527 0.910802
vt 0.964527 0.910802
vt 0.964527 0.910802
vt 0.964527 0.910802
vt 0.763001 0.924754
vt 0.763001 0.924754
vt 0.763001 0.924754
vt 0.763001 0.924754
vt 0.763001 0.924754
vt 0.763001 0.924754
vt 0.763001 0.924754
vt 0.964527 0.910802
vt 0.964527 0.910802
vt 0.964527 0.910802
vt 0.964527 0.910802
vt 0.964527 0.910802
vt 0.964527 0.910802
vt 0.964527 0.910802
vt 0.763001 0.924754
vt 0.763001 0.924754
vt 0.763001 0.924754
vt 0.763001 0.924754
vt 0.763001 0.924754
vt 0.763001 0.924754
vt 0.763001 0.924754
vt 0.964527 0.910802
vt 0.964527 0.910802
vt 0.964527 0.910802
vt 0.964527 0.910802
vt 0.964527 0.910802
vt 0.964527 0.910802
vt 0.964527 0.910802
vt 0.763001 0.924754
vt 0.763001 0.924754
vt 0.763001 0.924754
vt 0.763001 0.924754
vt 0.763001 0.924754
vt 0.763001 0.924754
vt 0.763001 0.924754
vt 0.964527 0.910802
vt 0.964527 0.910802
vt 0.964527 0.910802
vt 0.964527 0.910802
vt 0.964527 0.910802
vt 0.964527 0.910802
vt 0.964527 0.910802
vn -0.5093 -0.0688 -0.8578
vn -0.2495 0.4489 -0.8581
vn -0.2054 0.6146 -0.7616
vn -0.0987 0.0002 -0.9951
vn -0.3305 0.3708 -0.8679
vn -0.2933 0.5254 -0.7987
vn -0.4719 -0.0212 -0.8814
vn -0.4967 0.2039 -0.8437
vn -0.6142 0.4870 -0.6210
vn -0.1357 0.0288 -0.9903
vn -0.3844 0.3781 -0.8422
vn -0.4487 0.3830 -0.8074
vn -0.4670 0.0913 -0.8795
vn -0.1482 0.3928 -0.9076
vn 0.0306 0.6163 -0.7869
vn -0.0860 0.0110 -0.9962
vn -0.3762 0.3228 -0.8685
vn -0.3510 0.4931 -0.7960
vn -0.3864 0.1159 -0.9150
vn -0.2455 0.4282 -0.8697
vn -0.2557 0.4093 -0.8759
vn -0.1995 0.0550 -0.9784
vn -0.3997 0.4164 -0.8166
vn -0.3395 0.5574 -0.7577
s off
f 1/1/1 2/2/1 4/3/1 3/4/1
f 3/4/2 4/3/2 6/5/2 5/6/2
f 5/6/3 6/5/3 7/7/3
f 8/8/4 9/9/4 11/10/4 10/11/4
f 10/11/5 11/10/5 13/12/5 12/13/5
f 12/13/6 13/12/6 14/14/6
f 15/15/7 16/16/7 18/17/7 17/18/7
f 17/18/8 18/17/8 20/19/8 19/20/8
f 19/20/9 20/19/9 21/21/9
f 22/22/10 23/23/10 25/24/10 24/25/10
f 24/25/11 25/24/11 27/26/11 26/27/11
f 26/27/12 27/26/12 28/28/12
f 29/29/13 30/30/13 32/31/13 31/32/13
f 31/32/14 32/31/14 34/33/14 33/34/14
f 33/34/15 34/33/15 35/35/15
f 36/36/16 37/37/16 39/38/16 38/39/16
f 38/39/17 39/38/17 41/40/17 40/41/17
f 40/41/18 41/40/18 42/42/18
f 43/43/19 44/44/19 46/45/19 45/46/19
f 45/46/20 46/45/20 48/47/20 47/48/20
f 47/48/21 48/47/21 49/49/21
f 50/50/22 51/51/22 53/52/22 52/53/22
f 52/53/23 53/52/23 55/54/23 54/55/23
f 54/55/24 55/54/24 56/56/24
