# Blender v2.91.0 OBJ File: 'ANT_PROPS.blend'
# www.blender.org
o Plane.081_Plane.084
v -4.154114 -1.598746 -1.997279
v -6.231708 -0.966052 -0.109793
v -7.402419 14.039588 -0.618928
v -10.131103 14.241591 0.280138
v -8.149268 20.097572 2.767495
v -10.754363 20.290424 3.625841
v -9.464278 25.364475 7.372643
v -6.231708 -0.966051 -0.109793
v -8.192637 -1.287770 -0.784917
v -10.677356 12.095502 -0.535231
v -13.303764 12.441278 0.594929
v -12.277740 19.298409 3.133532
v -14.187083 19.485611 3.957989
v -13.133177 25.732735 7.680902
v -0.082764 -2.330838 -2.554476
v -2.102854 -1.709989 -1.567755
v -1.372634 10.966296 -2.262913
v -2.791811 11.861081 -1.444634
v -2.255333 21.511024 0.571244
v -3.846959 20.766750 1.561874
v -3.521710 26.271938 5.557758
v -2.102853 -1.709990 -1.567756
v -4.154114 -1.598746 -1.997279
v -4.104174 11.752685 -1.615303
v -6.721647 12.030908 -0.534556
v -4.363036 18.854149 1.452604
v -6.699724 19.119770 2.877317
v -6.650414 27.223984 6.694704
v 3.951602 -2.928615 -3.669250
v 1.879120 -2.149686 -1.831482
v 6.719883 14.666185 -2.656362
v 3.991488 15.061981 -1.823270
v 6.295637 21.849758 0.738063
v 5.042414 21.955948 0.772548
v 7.033588 26.655724 4.530991
v 1.879123 -2.149686 -1.831483
v -0.082764 -2.330838 -2.554476
v 2.992811 13.590471 -2.643589
v 0.340095 13.508207 -1.525028
v 1.430342 20.805765 0.715200
v -0.498442 20.745951 1.528502
v 0.957067 27.350410 4.977741
v 7.972809 -3.948831 -4.129022
v 5.978695 -3.185738 -3.190382
v 12.570173 11.829793 -4.071642
v 10.798956 12.507586 -3.237921
v 12.488130 17.533092 -1.240420
v 10.758182 18.195097 -0.426125
v 13.518182 25.848953 2.344872
v 5.978698 -3.185739 -3.190383
v 3.951602 -2.928615 -3.669250
v 9.840624 12.872609 -3.982100
v 7.383598 13.324355 -2.549002
v 9.925006 19.855778 -0.462936
v 8.310523 20.152613 0.478736
v 11.455753 26.405262 3.669064
vt 0.653626 0.930613
vt 0.653626 0.930613
vt 0.653626 0.930613
vt 0.653626 0.930613
vt 0.653626 0.930613
vt 0.653626 0.930613
vt 0.653626 0.930613
vt 0.855152 0.916661
vt 0.855152 0.916661
vt 0.855152 0.916661
vt 0.855152 0.916661
vt 0.855152 0.916661
vt 0.855152 0.916661
vt 0.855152 0.916661
vt 0.653626 0.930613
vt 0.653626 0.930613
vt 0.653626 0.930613
vt 0.653626 0.930613
vt 0.653626 0.930613
vt 0.653626 0.930613
vt 0.653626 0.930613
vt 0.855152 0.916661
vt 0.855152 0.916661
vt 0.855152 0.916661
vt 0.855152 0.916661
vt 0.855152 0.916661
vt 0.855152 0.916661
vt 0.855152 0.916661
vt 0.653626 0.930613
vt 0.653626 0.930613
vt 0.653626 0.930613
vt 0.653626 0.930613
vt 0.653626 0.930613
vt 0.653626 0.930613
vt 0.653626 0.930613
vt 0.855152 0.916661
vt 0.855152 0.916661
vt 0.855152 0.916661
vt 0.855152 0.916661
vt 0.855152 0.916661
vt 0.855152 0.916661
vt 0.855152 0.916661
vt 0.653626 0.930613
vt 0.653626 0.930613
vt 0.653626 0.930613
vt 0.653626 0.930613
vt 0.653626 0.930613
vt 0.653626 0.930613
vt 0.653626 0.930613
vt 0.855152 0.916661
vt 0.855152 0.916661
vt 0.855152 0.916661
vt 0.855152 0.916661
vt 0.855152 0.916661
vt 0.855152 0.916661
vt 0.855152 0.916661
vn -0.5093 -0.0688 -0.8578
vn -0.2495 0.4489 -0.8581
vn -0.2054 0.6146 -0.7616
vn -0.0987 0.0002 -0.9951
vn -0.3305 0.3708 -0.8679
vn -0.2933 0.5254 -0.7987
vn -0.4719 -0.0212 -0.8814
vn -0.4967 0.2039 -0.8437
vn -0.6142 0.4870 -0.6210
vn -0.1357 0.0288 -0.9903
vn -0.3844 0.3781 -0.8422
vn -0.4487 0.3830 -0.8074
vn -0.4670 0.0913 -0.8795
vn -0.1482 0.3928 -0.9076
vn 0.0306 0.6163 -0.7869
vn -0.0860 0.0110 -0.9962
vn -0.3762 0.3228 -0.8685
vn -0.3510 0.4931 -0.7960
vn -0.3864 0.1159 -0.9150
vn -0.2455 0.4282 -0.8697
vn -0.2556 0.4093 -0.8759
vn -0.1995 0.0550 -0.9784
vn -0.3997 0.4164 -0.8166
vn -0.3395 0.5574 -0.7577
s off
f 1/1/1 2/2/1 4/3/1 3/4/1
f 3/4/2 4/3/2 6/5/2 5/6/2
f 5/6/3 6/5/3 7/7/3
f 8/8/4 9/9/4 11/10/4 10/11/4
f 10/11/5 11/10/5 13/12/5 12/13/5
f 12/13/6 13/12/6 14/14/6
f 15/15/7 16/16/7 18/17/7 17/18/7
f 17/18/8 18/17/8 20/19/8 19/20/8
f 19/20/9 20/19/9 21/21/9
f 22/22/10 23/23/10 25/24/10 24/25/10
f 24/25/11 25/24/11 27/26/11 26/27/11
f 26/27/12 27/26/12 28/28/12
f 29/29/13 30/30/13 32/31/13 31/32/13
f 31/32/14 32/31/14 34/33/14 33/34/14
f 33/34/15 34/33/15 35/35/15
f 36/36/16 37/37/16 39/38/16 38/39/16
f 38/39/17 39/38/17 41/40/17 40/41/17
f 40/41/18 41/40/18 42/42/18
f 43/43/19 44/44/19 46/45/19 45/46/19
f 45/46/20 46/45/20 48/47/20 47/48/20
f 47/48/21 48/47/21 49/49/21
f 50/50/22 51/51/22 53/52/22 52/53/22
f 52/53/23 53/52/23 55/54/23 54/55/23
f 54/55/24 55/54/24 56/56/24
