# Blender v2.91.0 OBJ File: 'ANT.blend'
# www.blender.org
o Sphere
v 0.111252 0.185559 0.041677
v 0.129249 0.180139 0.021214
v 0.144507 0.164702 0.003866
v 0.155885 0.138345 -0.007725
v 0.158282 0.114347 -0.011796
v 0.154702 0.087095 -0.007725
v 0.144507 0.063992 0.003866
v 0.129249 0.048555 0.021214
v 0.111252 0.043134 0.041677
v 0.178092 0.138345 0.037468
v 0.182319 0.114347 0.037122
v 0.176909 0.087095 0.037468
v 0.161504 0.063992 0.038456
v 0.138448 0.048555 0.039934
v 0.161838 0.138345 0.085128
v 0.164725 0.114347 0.088708
v 0.160655 0.087095 0.085128
v 0.149063 0.063992 0.074933
v 0.131715 0.048555 0.059675
v 0.115461 0.141599 0.107335
v 0.115807 0.114347 0.112744
v 0.115461 0.087095 0.107335
v 0.114473 0.063992 0.091929
v 0.112995 0.048555 0.068874
v 0.093254 0.180139 0.062141
v 0.077996 0.164702 0.079489
v 0.067801 0.141599 0.091080
v 0.064221 0.114347 0.095151
v 0.067801 0.087095 0.091080
v 0.077996 0.063992 0.079489
v 0.093254 0.048555 0.062141
v 0.129517 0.182665 0.015901
v 0.147107 0.164868 -0.004099
v 0.160044 0.134980 -0.017462
v 0.140122 0.182665 0.037483
v 0.166702 0.164868 0.035779
v 0.185646 0.134980 0.034640
v 0.132360 0.182665 0.060242
v 0.152360 0.164868 0.077832
v 0.166906 0.134980 0.089586
v 0.110778 0.182665 0.070847
v 0.112482 0.164868 0.097427
v 0.113620 0.138234 0.115187
v 0.088019 0.182665 0.063085
v 0.070428 0.164868 0.083085
v 0.058675 0.138234 0.096448
v 0.108768 0.188915 0.039493
v -0.111252 0.185559 0.041677
v -0.129249 0.180139 0.021214
v -0.144507 0.164702 0.003866
v -0.155885 0.138345 -0.007725
v -0.158282 0.114347 -0.011796
v -0.154702 0.087095 -0.007725
v -0.144507 0.063992 0.003866
v -0.129249 0.048555 0.021214
v -0.111252 0.043134 0.041677
v -0.178092 0.138345 0.037468
v -0.182319 0.114347 0.037122
v -0.176909 0.087095 0.037468
v -0.161504 0.063992 0.038456
v -0.138448 0.048555 0.039934
v -0.161838 0.138345 0.085128
v -0.164725 0.114347 0.088708
v -0.160655 0.087095 0.085128
v -0.149063 0.063992 0.074933
v -0.131715 0.048555 0.059675
v -0.115461 0.141599 0.107335
v -0.115807 0.114347 0.112744
v -0.115461 0.087095 0.107335
v -0.114473 0.063992 0.091929
v -0.112995 0.048555 0.068874
v -0.093254 0.180139 0.062141
v -0.077996 0.164702 0.079489
v -0.067801 0.141599 0.091080
v -0.064221 0.114347 0.095151
v -0.067801 0.087095 0.091080
v -0.077996 0.063992 0.079489
v -0.093254 0.048555 0.062141
v -0.129517 0.182665 0.015901
v -0.147107 0.164868 -0.004099
v -0.160044 0.134980 -0.017462
v -0.140122 0.182665 0.037483
v -0.166702 0.164868 0.035779
v -0.185646 0.134980 0.034640
v -0.132360 0.182665 0.060242
v -0.152360 0.164868 0.077832
v -0.166906 0.134980 0.089586
v -0.110778 0.182665 0.070847
v -0.112482 0.164868 0.097427
v -0.113620 0.138234 0.115187
v -0.088019 0.182665 0.063085
v -0.070428 0.164868 0.083085
v -0.058675 0.138234 0.096448
v -0.108768 0.188915 0.039493
vt 0.522973 0.720343
vt 0.381217 0.695076
vt 0.439315 0.617825
vt 0.253233 0.640068
vt 0.144546 0.549281
vt 0.335536 0.425667
vt 0.379934 0.523558
vt 0.064726 0.428369
vt 0.026488 0.304977
vt 0.267558 0.209980
vt 0.299034 0.316635
vt 0.013060 0.979502
vt 0.013060 0.979502
vt 0.013060 0.979502
vt 0.013060 0.979502
vt 0.516587 0.386372
vt 0.517443 0.486317
vt 0.512660 0.162876
vt 0.517510 0.279819
vt 0.013060 0.979502
vt 0.013060 0.979502
vt 0.013060 0.979502
vt 0.013060 0.979502
vt 0.520539 0.591680
vt 0.013060 0.979502
vt 0.013060 0.979502
vt 0.013060 0.979502
vt 0.013060 0.979502
vt 0.657369 0.513906
vt 0.603283 0.614655
vt 0.731466 0.309511
vt 0.697692 0.414495
vt 0.013060 0.979502
vt 0.013060 0.979502
vt 0.013060 0.979502
vt 0.013060 0.979502
vt 0.013060 0.979502
vt 0.013060 0.979502
vt 0.762775 0.190409
vt 0.953272 0.393878
vt 0.891534 0.514978
vt 0.013060 0.979502
vt 0.013060 0.979502
vt 0.668746 0.692195
vt 0.796378 0.618531
vt 0.986519 0.267581
vt 0.013060 0.979502
vt 0.013060 0.979502
vt 0.013060 0.979502
vt 0.013060 0.979502
vt 0.013060 0.979502
vt 0.013060 0.979502
vt 0.522973 0.720343
vt 0.439315 0.617825
vt 0.381217 0.695076
vt 0.253233 0.640068
vt 0.379934 0.523558
vt 0.335536 0.425667
vt 0.144546 0.549281
vt 0.064726 0.428369
vt 0.299034 0.316635
vt 0.267558 0.209980
vt 0.026488 0.304977
vt 0.013060 0.979502
vt 0.013060 0.979502
vt 0.013060 0.979502
vt 0.013060 0.979502
vt 0.517443 0.486317
vt 0.516587 0.386372
vt 0.517510 0.279819
vt 0.512660 0.162876
vt 0.013060 0.979502
vt 0.013060 0.979502
vt 0.013060 0.979502
vt 0.013060 0.979502
vt 0.520539 0.591680
vt 0.013060 0.979502
vt 0.013060 0.979502
vt 0.013060 0.979502
vt 0.013060 0.979502
vt 0.603283 0.614655
vt 0.657369 0.513906
vt 0.697692 0.414495
vt 0.731466 0.309511
vt 0.013060 0.979502
vt 0.013060 0.979502
vt 0.013060 0.979502
vt 0.013060 0.979502
vt 0.013060 0.979502
vt 0.013060 0.979502
vt 0.762775 0.190409
vt 0.891534 0.514978
vt 0.953272 0.393878
vt 0.013060 0.979502
vt 0.013060 0.979502
vt 0.668746 0.692195
vt 0.796378 0.618531
vt 0.986519 0.267581
vt 0.013060 0.979502
vt 0.013060 0.979502
vt 0.013060 0.979502
vt 0.013060 0.979502
vt 0.013060 0.979502
vt 0.013060 0.979502
vn 0.1889 -0.9776 -0.0928
vn 0.7637 -0.5253 -0.3753
vn 0.8856 0.1623 -0.4352
vn 0.5260 -0.8103 -0.2584
vn 0.8827 -0.1807 -0.4337
vn -0.2546 -0.8751 -0.4116
vn 0.8054 -0.5253 0.2747
vn 0.9343 0.1599 0.3186
vn -0.3810 -0.4985 -0.7787
vn 0.5547 -0.8103 0.1892
vn 0.9309 -0.1807 0.3175
vn -0.4494 -0.8801 -0.1533
vn -0.4383 -0.6953 -0.5697
vn 0.1992 -0.9776 0.0679
vn 0.2584 -0.8103 0.5260
vn 0.4337 -0.1807 0.8827
vn -0.6210 -0.6953 -0.3620
vn -0.9164 -0.2619 -0.3026
vn 0.0928 -0.9776 0.1889
vn 0.3753 -0.5253 0.7637
vn 0.4343 0.1821 0.8822
vn -0.3470 -0.9222 0.1705
vn -0.3175 -0.1807 0.9309
vn -0.8210 -0.4985 -0.2784
vn 0.1248 -0.9222 -0.3659
vn -0.0679 -0.9776 0.1992
vn -0.2747 -0.5253 0.8054
vn -0.3175 0.1807 0.9309
vn -0.4198 -0.2522 -0.8719
vn -0.1892 -0.8103 0.5547
vn 0.1889 0.9776 -0.0928
vn 0.5260 0.8103 -0.2584
vn 0.7745 0.5054 -0.3805
vn 0.5547 0.8103 0.1892
vn 0.8160 0.5066 0.2783
vn 0.1992 0.9776 0.0679
vn 0.3900 0.5089 0.7674
vn 0.0928 0.9776 0.1889
vn 0.2584 0.8103 0.5260
vn -0.2747 0.5253 0.8054
vn -0.0679 0.9776 0.1992
vn -0.1892 0.8103 0.5547
vn -0.1889 -0.9776 -0.0928
vn -0.7637 -0.5253 -0.3753
vn -0.8856 0.1623 -0.4352
vn -0.5260 -0.8103 -0.2584
vn -0.8827 -0.1807 -0.4337
vn 0.2546 -0.8751 -0.4116
vn -0.8054 -0.5253 0.2747
vn -0.9343 0.1599 0.3186
vn 0.3810 -0.4985 -0.7787
vn -0.5547 -0.8103 0.1892
vn -0.9309 -0.1807 0.3175
vn 0.4494 -0.8801 -0.1533
vn 0.4383 -0.6953 -0.5697
vn -0.1992 -0.9776 0.0679
vn -0.2584 -0.8103 0.5260
vn -0.4337 -0.1807 0.8827
vn 0.6210 -0.6953 -0.3620
vn 0.9164 -0.2619 -0.3026
vn -0.0928 -0.9776 0.1889
vn -0.3753 -0.5253 0.7637
vn -0.4343 0.1821 0.8822
vn 0.3470 -0.9222 0.1705
vn 0.3175 -0.1807 0.9309
vn 0.8210 -0.4985 -0.2784
vn -0.1248 -0.9222 -0.3659
vn 0.0679 -0.9776 0.1992
vn 0.2747 -0.5253 0.8054
vn 0.3175 0.1807 0.9309
vn 0.4198 -0.2522 -0.8719
vn 0.1892 -0.8103 0.5547
vn -0.1889 0.9776 -0.0928
vn -0.5260 0.8103 -0.2584
vn -0.7745 0.5054 -0.3805
vn -0.5547 0.8103 0.1892
vn -0.8160 0.5066 0.2783
vn -0.1992 0.9776 0.0679
vn -0.3900 0.5089 0.7674
vn -0.0928 0.9776 0.1889
vn -0.2584 0.8103 0.5260
vn 0.2747 0.5253 0.8054
vn 0.0679 0.9776 0.1992
vn 0.1892 0.8103 0.5547
s off
f 9/1/1 8/2/1 14/3/1
f 7/4/2 6/5/2 12/6/2 13/7/2
f 5/8/3 4/9/3 10/10/3 11/11/3
f 8/2/4 7/4/4 13/7/4 14/3/4
f 6/5/5 5/8/5 11/11/5 12/6/5
f 20/12/6 15/13/6 40/14/6 43/15/6
f 13/7/7 12/6/7 17/16/7 18/17/7
f 11/11/8 10/10/8 15/18/8 16/19/8
f 25/20/9 26/21/9 45/22/9 44/23/9
f 14/3/10 13/7/10 18/17/10 19/24/10
f 12/6/11 11/11/11 16/19/11 17/16/11
f 15/13/12 10/25/12 37/26/12 40/14/12
f 1/27/13 25/20/13 44/23/13 47/28/13
f 9/1/14 14/3/14 19/24/14
f 19/24/15 18/17/15 23/29/15 24/30/15
f 17/16/16 16/19/16 21/31/16 22/32/16
f 2/33/17 1/27/17 47/28/17 32/34/17
f 4/35/18 3/36/18 33/37/18 34/38/18
f 9/1/19 19/24/19 24/30/19
f 18/17/20 17/16/20 22/32/20 23/29/20
f 16/19/21 15/18/21 20/39/21 21/31/21
f 10/25/22 4/35/22 34/38/22 37/26/22
f 22/32/23 21/31/23 28/40/23 29/41/23
f 3/36/24 2/33/24 32/34/24 33/37/24
f 27/42/25 20/12/25 43/15/25 46/43/25
f 9/1/26 24/30/26 31/44/26
f 23/29/27 22/32/27 29/41/27 30/45/27
f 21/31/28 20/39/28 27/46/28 28/40/28
f 26/21/29 27/42/29 46/43/29 45/22/29
f 24/30/30 23/29/30 30/45/30 31/44/30
f 32/34/31 47/28/31 35/47/31
f 33/37/32 32/34/32 35/47/32 36/48/32
f 34/38/33 33/37/33 36/48/33 37/26/33
f 36/48/34 35/47/34 38/49/34 39/50/34
f 37/26/35 36/48/35 39/50/35 40/14/35
f 35/47/36 47/28/36 38/49/36
f 40/14/37 39/50/37 42/51/37 43/15/37
f 38/49/38 47/28/38 41/52/38
f 39/50/39 38/49/39 41/52/39 42/51/39
f 43/15/40 42/51/40 45/22/40 46/43/40
f 41/52/41 47/28/41 44/23/41
f 42/51/42 41/52/42 44/23/42 45/22/42
f 56/53/43 61/54/43 55/55/43
f 54/56/44 60/57/44 59/58/44 53/59/44
f 52/60/45 58/61/45 57/62/45 51/63/45
f 55/55/46 61/54/46 60/57/46 54/56/46
f 53/59/47 59/58/47 58/61/47 52/60/47
f 67/64/48 90/65/48 87/66/48 62/67/48
f 60/57/49 65/68/49 64/69/49 59/58/49
f 58/61/50 63/70/50 62/71/50 57/62/50
f 72/72/51 91/73/51 92/74/51 73/75/51
f 61/54/52 66/76/52 65/68/52 60/57/52
f 59/58/53 64/69/53 63/70/53 58/61/53
f 62/67/54 87/66/54 84/77/54 57/78/54
f 48/79/55 94/80/55 91/73/55 72/72/55
f 56/53/56 66/76/56 61/54/56
f 66/76/57 71/81/57 70/82/57 65/68/57
f 64/69/58 69/83/58 68/84/58 63/70/58
f 49/85/59 79/86/59 94/80/59 48/79/59
f 51/87/60 81/88/60 80/89/60 50/90/60
f 56/53/61 71/81/61 66/76/61
f 65/68/62 70/82/62 69/83/62 64/69/62
f 63/70/63 68/84/63 67/91/63 62/71/63
f 57/78/64 84/77/64 81/88/64 51/87/64
f 69/83/65 76/92/65 75/93/65 68/84/65
f 50/90/66 80/89/66 79/86/66 49/85/66
f 74/94/67 93/95/67 90/65/67 67/64/67
f 56/53/68 78/96/68 71/81/68
f 70/82/69 77/97/69 76/92/69 69/83/69
f 68/84/70 75/93/70 74/98/70 67/91/70
f 73/75/71 92/74/71 93/95/71 74/94/71
f 71/81/72 78/96/72 77/97/72 70/82/72
f 79/86/73 82/99/73 94/80/73
f 80/89/74 83/100/74 82/99/74 79/86/74
f 81/88/75 84/77/75 83/100/75 80/89/75
f 83/100/76 86/101/76 85/102/76 82/99/76
f 84/77/77 87/66/77 86/101/77 83/100/77
f 82/99/78 85/102/78 94/80/78
f 87/66/79 90/65/79 89/103/79 86/101/79
f 85/102/80 88/104/80 94/80/80
f 86/101/81 89/103/81 88/104/81 85/102/81
f 90/65/82 93/95/82 92/74/82 89/103/82
f 88/104/83 91/73/83 94/80/83
f 89/103/84 92/74/84 91/73/84 88/104/84
