# Blender v2.91.0 OBJ File: 'ANT_props.blend'
# www.blender.org
o Cube.002_Cube.007
v -0.113904 -0.113904 0.006790
v -0.113904 0.244891 0.006790
v -0.131020 -0.131020 -0.006790
v -0.131020 0.262008 -0.006790
v 0.113904 -0.113904 0.006790
v 0.113904 0.244891 0.006790
v 0.131020 -0.131020 -0.006790
v 0.131020 0.262008 -0.006790
v -0.131020 -0.131020 0.006790
v -0.131020 0.262008 0.006790
v 0.131020 0.262008 0.006790
v 0.131020 -0.131020 0.006790
v -0.131020 0.203953 0.006790
v -0.131020 0.203953 -0.006790
v 0.131020 0.203953 -0.006790
v 0.131020 0.203953 0.006790
v -0.113904 0.203953 0.006790
v 0.113904 0.203953 0.006790
v -0.113904 0.203953 0.014957
v -0.113904 0.244891 0.014957
v 0.113904 0.203953 0.014957
v 0.113904 -0.113904 0.014957
v -0.113904 -0.113904 0.014957
v 0.113904 0.244891 0.014957
v -0.113904 0.203953 0.032439
v -0.113904 0.244891 0.032439
v 0.113904 0.244891 0.032439
v 0.113904 0.203953 0.032439
vt 0.754666 0.788927
vt 0.754666 0.788927
vt 0.754666 0.788927
vt 0.754666 0.788927
vt 0.922635 0.745958
vt 0.922635 0.745958
vt 0.922635 0.745958
vt 0.922635 0.745958
vt 0.754666 0.788927
vt 0.754666 0.788927
vt 0.754666 0.788927
vt 0.754666 0.788927
vt 0.316747 0.684698
vt 0.316747 0.684698
vt 0.316747 0.684698
vt 0.316747 0.684698
vt 0.754666 0.788927
vt 0.754666 0.788927
vt 0.754666 0.788927
vt 0.754666 0.788927
vt 0.844510 0.792833
vt 0.844510 0.792833
vt 0.844510 0.792833
vt 0.844510 0.792833
vt 0.844510 0.792833
vt 0.844510 0.792833
vt 0.844510 0.792833
vt 0.844510 0.792833
vt 0.844510 0.792833
vt 0.844510 0.792833
vt 0.844510 0.792833
vt 0.844510 0.792833
vt 0.434353 0.620958
vt 0.434353 0.620958
vt 0.434353 0.620958
vt 0.434353 0.620958
vt 0.922635 0.745958
vt 0.922635 0.745958
vt 0.434353 0.620958
vt 0.434353 0.620958
vt 0.434353 0.620958
vt 0.047216 0.950323
vt 0.047216 0.950323
vt 0.047216 0.950323
vt 0.047216 0.950323
vt 0.316747 0.684698
vt 0.316747 0.684698
vt 0.316747 0.684698
vt 0.316747 0.684698
vt 0.434353 0.620958
vt 0.434353 0.620958
vt 0.434353 0.620958
vt 0.434353 0.620958
vt 0.434353 0.620958
vn -1.0000 0.0000 0.0000
vn 0.0000 0.0000 -1.0000
vn 1.0000 0.0000 0.0000
vn 0.0000 -1.0000 0.0000
vn 0.0000 1.0000 0.0000
vn 0.0000 0.0000 1.0000
s off
f 13/1/1 10/2/1 4/3/1 14/4/1
f 14/5/2 4/6/2 8/7/2 15/8/2
f 15/9/3 8/10/3 11/11/3 16/12/3
f 17/13/1 1/14/1 23/15/1 19/16/1
f 3/17/4 7/18/4 12/19/4 9/20/4
f 8/10/5 4/3/5 10/2/5 11/11/5
f 17/21/6 2/22/6 10/23/6 13/24/6
f 18/25/6 5/26/6 12/27/6 16/28/6
f 5/26/6 1/29/6 9/30/6 12/27/6
f 2/22/6 6/31/6 11/32/6 10/23/6
f 6/31/6 18/25/6 16/28/6 11/32/6
f 1/29/6 17/21/6 13/24/6 9/30/6
f 6/33/5 2/34/5 20/35/5 24/36/5
f 7/18/3 15/9/3 16/12/3 12/19/3
f 3/37/2 14/5/2 15/8/2 7/38/2
f 9/20/1 13/1/1 14/4/1 3/17/1
f 21/39/3 24/36/3 27/40/3 28/41/3
f 22/42/6 21/43/6 19/44/6 23/45/6
f 5/46/3 18/47/3 21/48/3 22/49/3
f 18/50/3 6/33/3 24/36/3 21/39/3
f 1/14/4 5/46/4 22/49/4 23/15/4
f 2/34/1 17/51/1 19/52/1 20/35/1
f 28/41/6 27/40/6 26/53/6 25/54/6
f 24/36/5 20/35/5 26/53/5 27/40/5
f 19/52/4 21/39/4 28/41/4 25/54/4
f 20/35/1 19/52/1 25/54/1 26/53/1
