# Blender v2.91.0 OBJ File: 'ANT_props.blend'
# www.blender.org
o Cube_Cube.004
v -0.045209 0.208244 0.022320
v -0.024119 0.360893 0.040692
v -0.045209 0.208244 -0.050036
v -0.002076 0.369829 0.008338
v 0.045209 0.208244 0.022320
v 0.108956 0.348501 0.025678
v 0.045209 0.208244 -0.050036
v 0.089295 0.358271 -0.005246
v 0.015070 0.208244 -0.069300
v -0.015070 0.208244 -0.069300
v -0.015070 0.256396 -0.050036
v 0.015070 0.256396 -0.050036
v -0.015070 0.208244 0.031685
v 0.015070 0.208244 0.031685
v 0.015070 0.256396 0.043345
v -0.015070 0.256396 0.043345
v -0.057802 0.208244 -0.022903
v 0.056002 0.363906 0.046178
v 0.067381 0.208244 -0.022903
v 0.015070 0.256396 -0.022903
v -0.015070 0.256396 -0.022903
v 0.030384 0.366175 -0.010018
vt 0.731271 0.909866
vt 0.731271 0.909866
vt 0.731271 0.909866
vt 0.731271 0.909866
vt 0.731271 0.909866
vt 0.731271 0.909866
vt 0.914787 0.912842
vt 0.914787 0.912842
vt 0.914787 0.912842
vt 0.731271 0.909866
vt 0.731271 0.909866
vt 0.731271 0.909866
vt 0.914787 0.912842
vt 0.914787 0.912842
vt 0.914787 0.912842
vt 0.731271 0.909866
vt 0.731271 0.909866
vt 0.731271 0.909866
vt 0.731271 0.909866
vt 0.731271 0.909866
vt 0.731271 0.909866
vt 0.731271 0.909866
vt 0.731271 0.909866
vt 0.731271 0.909866
vt 0.731271 0.909866
vt 0.731271 0.909866
vt 0.731271 0.909866
vt 0.731271 0.909866
vt 0.914787 0.912842
vt 0.914787 0.912842
vt 0.914787 0.912842
vt 0.914787 0.912842
vt 0.914787 0.912842
vt 0.914787 0.912842
vt 0.914787 0.912842
vt 0.914787 0.912842
vt 0.914787 0.912842
vn -0.8439 0.3667 -0.3916
vn 0.5103 0.3194 -0.7984
vn 0.8282 -0.3862 0.4061
vn -0.2891 -0.2253 0.9304
vn 0.9963 0.0863 0.0000
vn -0.7003 0.7138 0.0000
vn -0.8342 0.5515 -0.0000
vn 0.2891 -0.2253 0.9304
vn 0.0000 -0.2353 0.9719
vn -0.5103 0.3194 -0.7984
vn 0.0000 0.3714 -0.9285
vn -0.4795 0.4255 -0.7675
vn 0.2349 0.2552 -0.9379
vn -0.9239 0.3825 0.0000
vn -0.0946 -0.1027 0.9902
vn -0.9585 0.1003 0.2669
vn 0.7738 -0.0386 -0.6323
vn 0.9935 -0.1138 0.0000
vn -0.8082 0.5889 0.0000
vn 0.0000 0.3425 -0.9395
vn 0.3217 -0.2855 0.9028
vn 0.0000 -0.0263 0.9997
vn 0.9346 -0.3558 0.0000
vn 0.0000 0.5406 -0.8413
vn 0.9904 -0.1382 0.0000
vn 0.0000 -0.1166 0.9932
vn -0.5439 -0.0258 0.8388
vn 0.3509 -0.1815 0.9187
vn 0.3031 0.1897 -0.9339
vn -0.6483 0.4058 -0.6442
s off
f 17/1/1 4/2/1 3/3/1
f 9/4/2 12/5/2 7/6/2
f 19/7/3 6/8/3 5/9/3
f 13/10/4 16/11/4 1/12/4
f 21/13/5 2/14/5 16/15/5
f 6/16/6 20/17/6 15/18/6
f 21/19/7 16/11/7 18/20/7
f 5/21/8 15/18/8 14/22/8
f 14/22/9 15/18/9 16/11/9 13/10/9
f 3/3/10 11/23/10 10/24/10
f 10/24/11 11/23/11 12/5/11 9/4/11
f 21/19/12 17/1/12 2/25/12
f 19/26/13 20/17/13 6/16/13
f 11/23/14 21/19/14 22/27/14
f 19/26/15 8/28/15 20/17/15
f 1/12/16 2/25/16 17/1/16
f 7/29/17 8/30/17 19/7/17
f 11/31/18 4/32/18 21/13/18
f 8/28/19 12/5/19 20/17/19
f 12/5/20 11/23/20 22/27/20
f 17/1/21 21/19/21 4/2/21
f 16/11/22 15/18/22 18/20/22
f 15/33/23 20/34/23 18/35/23
f 20/17/24 21/19/24 18/20/24
f 20/34/25 12/36/25 22/37/25
f 21/19/26 20/17/26 22/27/26
f 1/12/27 16/11/27 2/25/27
f 15/18/28 5/21/28 6/16/28
f 7/6/29 12/5/29 8/28/29
f 11/23/30 3/3/30 4/2/30
