# Blender v2.91.0 OBJ File: 'ANT_props.blend'
# www.blender.org
o hat_Cylinder.002
v 0.000000 0.236070 -0.183253
v 0.000000 0.298806 -0.198083
v 0.128595 0.298806 -0.123838
v 0.130474 0.247506 -0.138454
v 0.128595 0.298806 0.024650
v 0.168681 0.255814 0.022634
v 0.154377 0.247844 0.214398
v 0.154377 0.292082 0.214398
v 0.000000 0.292082 0.249198
v 0.000000 0.247844 0.249198
v -0.154377 0.292082 0.214398
v -0.154377 0.247844 0.214398
v -0.128595 0.298806 -0.123838
v -0.114363 0.430895 -0.115621
v 0.000000 0.430895 -0.181649
v -0.128595 0.298806 0.024650
v -0.168819 0.255867 0.024498
v -0.130474 0.247506 -0.138454
v 0.000000 0.298806 0.098895
v 0.114363 0.430895 -0.115621
v -0.114363 0.430895 0.016433
v 0.000000 0.430895 0.082461
v 0.114363 0.430895 0.016433
vt 0.148437 0.766719
vt 0.148437 0.766719
vt 0.148437 0.766719
vt 0.148437 0.766719
vt 0.148437 0.766719
vt 0.148437 0.766719
vt 0.148437 0.766719
vt 0.148437 0.766719
vt 0.148437 0.766719
vt 0.148437 0.766719
vt 0.148437 0.766719
vt 0.148437 0.766719
vt 0.148437 0.766719
vt 0.148437 0.766719
vt 0.148437 0.766719
vt 0.148437 0.766719
vt 0.148437 0.766719
vt 0.148437 0.766719
vt 0.648438 0.766719
vt 0.648438 0.766719
vt 0.648438 0.766719
vt 0.648438 0.766719
vt 0.648438 0.766719
vt 0.648438 0.766719
vt 0.648438 0.766719
vt 0.648438 0.766719
vt 0.070312 0.782344
vt 0.070312 0.782344
vt 0.070312 0.782344
vt 0.070312 0.782344
vt 0.070312 0.782344
vt 0.070312 0.782344
vt 0.070312 0.762812
vt 0.070312 0.762812
vt 0.070312 0.762812
vt 0.070312 0.762812
vt 0.070312 0.762812
vt 0.070312 0.762812
vt 0.148437 0.766719
vt 0.148437 0.766719
vt 0.148437 0.766719
vt 0.148437 0.766719
vt 0.148437 0.766719
vn 0.4173 0.0052 -0.9087
vn 0.8986 0.4215 -0.1222
vn 0.2199 0.0000 0.9755
vn -0.2199 0.0000 0.9755
vn -0.4971 0.1071 -0.8610
vn -0.9079 0.4190 -0.0108
vn -0.4173 0.0052 -0.9087
vn -0.0001 -0.9999 0.0116
vn 0.0148 0.9992 0.0384
vn -0.0148 0.9992 0.0384
vn 0.0000 1.0000 0.0000
vn -0.4971 0.1071 0.8610
vn 0.9942 0.1071 0.0000
vn -0.9942 0.1071 0.0000
vn 0.4971 0.1071 0.8610
vn 0.4971 0.1071 -0.8610
vn 0.9085 0.4178 -0.0112
vn -0.8989 0.4207 -0.1220
s 1
f 1/1/1 2/2/1 3/3/1 4/4/1
f 4/4/2 3/3/2 5/5/2 6/6/2
f 7/7/3 8/8/3 9/9/3 10/10/3
f 10/10/4 9/9/4 11/11/4 12/12/4
f 2/2/5 13/13/5 14/14/5 15/15/5
f 12/12/6 11/11/6 16/16/6 17/17/6
f 18/18/7 13/13/7 2/2/7 1/1/7
f 1/19/8 4/20/8 6/21/8 7/22/8 10/23/8 12/24/8 17/25/8 18/26/8
f 5/27/9 19/28/9 9/29/9 8/30/9
f 19/28/10 16/31/10 11/32/10 9/29/10
f 20/33/11 15/34/11 14/35/11 21/36/11 22/37/11 23/38/11
f 16/16/12 19/39/12 22/40/12 21/41/12
f 5/5/13 3/3/13 20/42/13 23/43/13
f 13/13/14 16/16/14 21/41/14 14/14/14
f 19/39/15 5/5/15 23/43/15 22/40/15
f 3/3/16 2/2/16 15/15/16 20/42/16
f 6/6/17 5/5/17 8/8/17 7/7/17
f 17/17/18 16/16/18 13/13/18 18/18/18
