# Blender v2.91.0 OBJ File: 'ANT_props.blend'
# www.blender.org
o hat_Cylinder
v 0.000000 0.193301 -0.349344
v 0.000000 0.253059 -0.349344
v 0.258762 0.253059 -0.199948
v 0.258762 0.193301 -0.199948
v 0.258762 0.253059 0.098844
v 0.258762 0.193301 0.098844
v 0.000000 0.253059 0.248240
v 0.000000 0.193301 0.248240
v -0.258762 0.253059 0.098844
v -0.258762 0.193301 0.098844
v 0.000000 0.308545 -0.195134
v -0.125212 0.308545 -0.122843
v -0.114363 0.560109 -0.116579
v 0.000000 0.560109 -0.182607
v -0.258762 0.253059 -0.199948
v -0.258762 0.193301 -0.199948
v 0.000000 0.259783 -0.199041
v 0.128595 0.259783 -0.124796
v 0.128595 0.259783 0.023692
v 0.000000 0.259783 0.097937
v -0.128595 0.259783 0.023692
v -0.128595 0.259783 -0.124796
v 0.114363 0.560109 -0.116579
v -0.114363 0.560109 0.015475
v 0.000000 0.560109 0.081503
v 0.114363 0.560109 0.015475
v -0.125212 0.308545 0.021739
v 0.000000 0.308545 0.094030
v 0.125212 0.308545 0.021739
v 0.125212 0.308545 -0.122843
vt 0.164062 0.497187
vt 0.164062 0.497187
vt 0.164062 0.497187
vt 0.164062 0.497187
vt 0.164062 0.497187
vt 0.164062 0.497187
vt 0.164062 0.497187
vt 0.164062 0.497187
vt 0.164062 0.497187
vt 0.164062 0.497187
vt 0.164062 0.497187
vt 0.164062 0.497187
vt 0.164062 0.497187
vt 0.164062 0.497187
vt 0.164062 0.497187
vt 0.164062 0.497187
vt 0.085937 0.512812
vt 0.085937 0.512812
vt 0.085937 0.512812
vt 0.085937 0.512812
vt 0.085937 0.512812
vt 0.085937 0.512812
vt 0.085937 0.512812
vt 0.085937 0.512812
vt 0.085937 0.512812
vt 0.085937 0.512812
vt 0.085937 0.512812
vt 0.085937 0.512812
vt 0.085937 0.493281
vt 0.085937 0.493281
vt 0.085937 0.493281
vt 0.085937 0.493281
vt 0.085937 0.493281
vt 0.085937 0.493281
vt 0.164062 0.497187
vt 0.164062 0.497187
vt 0.164062 0.497187
vt 0.164062 0.497187
vt 0.164062 0.497187
vt 0.164062 0.497187
vt 0.164062 0.497187
vt 0.164062 0.497187
vt 0.238281 0.501094
vt 0.238281 0.501094
vt 0.238281 0.501094
vt 0.238281 0.501094
vt 0.238281 0.501094
vt 0.238281 0.501094
vt 0.238281 0.501094
vt 0.238281 0.501094
vt 0.238281 0.501094
vt 0.238281 0.501094
vt 0.238281 0.501094
vt 0.238281 0.501094
vn 0.5000 0.0000 -0.8660
vn 1.0000 -0.0000 0.0000
vn 0.5000 -0.0000 0.8660
vn -0.5000 -0.0000 0.8660
vn -0.4995 0.0431 -0.8652
vn -1.0000 0.0000 0.0000
vn -0.5000 0.0000 -0.8660
vn 0.0000 -1.0000 0.0000
vn 0.0258 0.9987 -0.0447
vn 0.0516 0.9987 0.0000
vn 0.0258 0.9987 0.0447
vn -0.0258 0.9987 0.0447
vn -0.0516 0.9987 0.0000
vn -0.0258 0.9987 -0.0447
vn 0.0000 1.0000 0.0000
vn -0.4995 0.0431 0.8652
vn 0.9991 0.0431 0.0000
vn -0.9991 0.0431 0.0000
vn 0.4995 0.0431 0.8652
vn 0.4995 0.0431 -0.8652
vn 0.4988 0.0692 -0.8639
vn 0.4988 0.0692 0.8639
vn -0.9976 0.0692 0.0000
vn 0.9976 0.0692 0.0000
vn -0.4988 0.0692 0.8639
vn -0.4988 0.0692 -0.8639
s 1
f 1/1/1 2/2/1 3/3/1 4/4/1
f 4/4/2 3/3/2 5/5/2 6/6/2
f 6/6/3 5/5/3 7/7/3 8/8/3
f 8/8/4 7/7/4 9/9/4 10/10/4
f 11/11/5 12/12/5 13/13/5 14/14/5
f 10/10/6 9/9/6 15/15/6 16/16/6
f 16/16/7 15/15/7 2/2/7 1/1/7
f 1/1/8 4/4/8 6/6/8 8/8/8 10/10/8 16/16/8
f 17/17/9 18/18/9 3/19/9 2/20/9
f 18/18/10 19/21/10 5/22/10 3/19/10
f 19/21/11 20/23/11 7/24/11 5/22/11
f 20/23/12 21/25/12 9/26/12 7/24/12
f 21/25/13 22/27/13 15/28/13 9/26/13
f 22/27/14 17/17/14 2/20/14 15/28/14
f 23/29/15 14/30/15 13/31/15 24/32/15 25/33/15 26/34/15
f 27/35/16 28/36/16 25/37/16 24/38/16
f 29/39/17 30/40/17 23/41/17 26/42/17
f 12/12/18 27/35/18 24/38/18 13/13/18
f 28/36/19 29/39/19 26/42/19 25/37/19
f 30/40/20 11/11/20 14/14/20 23/41/20
f 18/43/21 17/44/21 11/45/21 30/46/21
f 20/47/22 19/48/22 29/49/22 28/50/22
f 22/51/23 21/52/23 27/53/23 12/54/23
f 19/48/24 18/43/24 30/46/24 29/49/24
f 21/52/25 20/47/25 28/50/25 27/53/25
f 17/44/26 22/51/26 12/54/26 11/45/26
